PathFileType	4	(X/Y/Z)	37_2_52_p0_0-587_filt_butterworth.trc
DataRate	CameraRate	NumFrames	NumMarkers	Units	OrigDataRate	OrigDataStartFrame	OrigNumFrames
60.0	60.0	6	27	m	60.0	366	587
Frame#	Time	RHip			RKnee			RAnkle			RBigToe			RSmallToe			RHeel			LHip			LKnee			LAnkle			LBigToe			LSmallToe			LHeel			Neck			Head			Nose			RShoulder			RElbow			RWrist			RThumb			RIndex			RPinky			LShoulder			LElbow			LWrist			LThumb			LIndex			LPinky			
		X1	Y1	Z1	X2	Y2	Z2	X3	Y3	Z3	X4	Y4	Z4	X5	Y5	Z5	X6	Y6	Z6	X7	Y7	Z7	X8	Y8	Z8	X9	Y9	Z9	X10	Y10	Z10	X11	Y11	Z11	X12	Y12	Z12	X13	Y13	Z13	X14	Y14	Z14	X15	Y15	Z15	X16	Y16	Z16	X17	Y17	Z17	X18	Y18	Z18	X19	Y19	Z19	X20	Y20	Z20	X21	Y21	Z21	X22	Y22	Z22	X23	Y23	Z23	X24	Y24	Z24	X25	Y25	Z25	X26	Y26	Z26	X27	Y27	Z27	
366	6.1	0.36850221064585187	0.6889000762443369	0.4776561757952171	0.36628377024403996	0.8887519766792714	0.9442264262760164	0.37885762812817325	1.056109346343449	1.3685118667436367	0.3260351623858693	0.9020234519693834	1.438922805302506	0.388068952263569	0.8986852743170937	1.4330434089111865	0.36060367400293414	1.1637413036750999	1.4165425908050644	0.17611494964157146	0.7613935620671678	0.46636411157672114	0.18355076478103838	0.9202244907274538	0.9386626414672818	0.17726371903835583	1.0678353981084467	1.3515983234094024	0.17545726354404562	0.9012799815980577	1.4178931370733916	0.12278995381809558	0.9474616136036026	1.4143371384781172	0.20421963364922746	1.13673644440363	1.4125879351004031	0.2991559912271874	0.5450324485919181	-0.04167025279850988	0.3067886917938884	0.44894702250306023	-0.25700676667834044	0.29449556407226135	0.44160485651458004	-0.12761201783259987	0.4660836132398801	0.5549744107571036	0.07941010779611458	0.4773281122476799	0.6166550928656472	0.348116222564995	0.4301657616201775	0.6319614243323504	0.5940718582050449	0.37512606191340675	0.6449827253243074	0.69572284212013	0.40344547259311614	0.7017844135502576	0.7293791040214832	0.41436553139755694	0.7096270810420744	0.7089022128615218	0.1419231779230179	0.6559131641231138	0.007528539688988815	0.08831458446393822	0.7305745845197589	0.2699053609896509	0.09989419387788093	0.7111415926046384	0.5350111147894143	0.13931232657604656	0.6930090718895952	0.6350823612501934	0.112566492280727	0.7270413504861308	0.6662968319419295	0.10441414573297099	0.7462810416490423	0.6451288329915608
367	6.116666666666666	0.3691220045713385	0.6902601308912591	0.47782365843735497	0.3661674565264137	0.8860969429973365	0.9445834079813568	0.3782826925497993	1.0612690503951367	1.3714225917464127	0.32609397520184336	0.9020210677900597	1.4389247441683135	0.38864802378565544	0.895205996375392	1.4330576600449514	0.36120430955413496	1.1651635539725653	1.4189579084916264	0.17611347735424063	0.7610348591159707	0.46648284226698666	0.18355520035679207	0.9202327843397438	0.9386144883976442	0.1776674566928121	1.0690206062528538	1.3535031137008289	0.175404754509555	0.9011248368867955	1.4194160905409885	0.12382436530994317	0.9413891797339244	1.4145145259970027	0.20427134961963087	1.1374125773788728	1.414062350824152	0.2991042333089017	0.5452138092421663	-0.04124759062657974	0.3070053951869467	0.44857433017370163	-0.25707904391151665	0.2952704599111481	0.44154248218732745	-0.12403558746742627	0.4661075819587629	0.5546329996654751	0.07918195918359609	0.47316439457837134	0.6131180101661405	0.3499431166391221	0.42994174013636366	0.6321190789445791	0.5942335474039009	0.3752778332183473	0.6450145135100868	0.6957796026569315	0.4036496526069066	0.7020270412093995	0.7297963848039452	0.4148843334717126	0.7095264285377206	0.7089518655365434	0.1408140678860466	0.6523801758929694	0.007301805750049768	0.09041506064426913	0.7200419626949129	0.2704508272483545	0.10236886454681901	0.7069215108821281	0.5353368535864372	0.13973335736633186	0.6965045058764943	0.6356286887473975	0.11238587206339094	0.7282182197364299	0.6677708592202662	0.10462156992889277	0.7464604447035409	0.6450406274904324
368	6.133333333333334	0.36922491236916083	0.6905294679310998	0.4778896698320176	0.3649155723469339	0.8816030039921162	0.9436855006498219	0.3775074111607792	1.0683194157813716	1.374477638077572	0.3263282180288456	0.9016952294762356	1.4383600193726218	0.38974743711876564	0.8931142866145669	1.4331692992421665	0.3627802274961971	1.1691497680445213	1.4213988372379254	0.1760675893998447	0.7605248950191635	0.46644637792455373	0.183574199835794	0.9203248778438706	0.9385491433331354	0.17798909597252988	1.0699403535421215	1.354959656811236	0.17540273281708213	0.9010030861458533	1.4198097375107177	0.12466780547187173	0.9366718477819596	1.4143512257003825	0.20433350350469853	1.1378842522429466	1.4151404605798799	0.2990489290854366	0.5454369238369572	-0.0403999702181495	0.30687645030716565	0.448271173701215	-0.2570618090679648	0.29618087436389634	0.44146894938346365	-0.12133878197050524	0.4660700779150213	0.5545610681044384	0.07918976813942909	0.4672397468660646	0.6087143331125177	0.351956424554294	0.42948972732920443	0.6323967965419942	0.5946212521410601	0.37591515469496806	0.6462596964655092	0.6958841965592497	0.40372544297647495	0.7023294636907936	0.730432392388648	0.41600206833144127	0.7094697672983156	0.7090306035731101	0.13945239771023074	0.6478121491314914	0.007698033013349788	0.09287039587118141	0.7075251718269626	0.27113153904513354	0.10505800805020636	0.703972173815155	0.5353183216592191	0.14064002471608006	0.6978670028998901	0.6356959086715541	0.1122996825428951	0.7286849920448745	0.6683101536838595	0.10485828356650548	0.746703331378152	0.6450007212393801
369	6.15	0.36906719819661593	0.6902094017496119	0.4779479510925563	0.3623814215350609	0.8777328062264003	0.9426134464561494	0.3769616432397277	1.0733819735013923	1.3763046502098213	0.326657667027672	0.9008464950450381	1.4369192377221507	0.39183653219106634	0.892745959899989	1.4332825395124866	0.36485495638493826	1.1744381523354215	1.4228972538240003	0.1760819382175484	0.7601340781168989	0.46638521574529096	0.18358981236912963	0.9203825847900803	0.9385871834338613	0.17813802260553865	1.0703154483222765	1.3555472067525882	0.17540244034749136	0.9010038028016772	1.4196591474189375	0.12502655187872996	0.9347446521545026	1.4141735788811796	0.2044270746563352	1.138137373011218	1.415607748584947	0.29901056946079213	0.5456475769723863	-0.03935626495593763	0.30673075479029915	0.44813993418407116	-0.25670454335385723	0.2970166462906003	0.44147671366803304	-0.12030212360184	0.46559932835182416	0.5545066942897962	0.0788911868052485	0.46157297712405354	0.6040996080386216	0.35260646119972394	0.4291213105704019	0.6326254351800267	0.5949109151417159	0.3772515564593199	0.6493349931088216	0.6960923457241526	0.40372825887511554	0.702298819892949	0.7311426071861676	0.4175369678671862	0.7094706250926175	0.7090908542391829	0.1383995636446704	0.6443966584676988	0.008222520727103097	0.09504658590204312	0.6976235630280172	0.2716719421592983	0.10661132052717526	0.702784810457794	0.535258996799436	0.14187504685243377	0.6981077702855629	0.6357278756137605	0.11229009800984086	0.7290881417708653	0.6689739619281976	0.10492865299095196	0.7469714562546659	0.6452530058201651
370	6.166666666666667	0.36847611474911524	0.6888700746072257	0.47834680028761106	0.3596409346079844	0.8758964173663046	0.9420131918437302	0.3769760895117639	1.0734149539635307	1.3763250651432932	0.32678229615432614	0.8996906817372046	1.4349989454986334	0.3937665728086973	0.8930120780846892	1.4333195044579146	0.36643182713220634	1.178406237568015	1.4233358384466475	0.17632320977727586	0.7597032436549214	0.4663272988050773	0.18357894241613334	0.9202263430662951	0.9389813637732642	0.17817096264981705	1.0703331438579156	1.3555692475046277	0.1753989042626078	0.9011219324911643	1.4194405864696105	0.12504051154023105	0.9346304901075713	1.4140639414949676	0.20464847480039677	1.138331103959081	1.415706236760939	0.2989791409581321	0.5457413769154484	-0.03860439973364312	0.30664345481509886	0.44814602181232044	-0.25582857051453994	0.2974582005221647	0.44151605979538877	-0.12023419761701327	0.464432076270661	0.5543653957438028	0.07798912746253428	0.45803041857522964	0.600571192551904	0.3515162334043214	0.4289580840053728	0.6326048590610278	0.5950024960178916	0.3789444768171272	0.6533954100987714	0.6964485564658383	0.4040624843485152	0.7019894633448979	0.7317862702206496	0.41881126761756693	0.7095012740404121	0.7091046081183041	0.1379613645384592	0.6431068879389001	0.008513532731476387	0.0971425239881318	0.692652367419283	0.2719367837637502	0.10626917944803557	0.7015320267309194	0.5352922755832746	0.14281639285024728	0.6980846832729037	0.6358717572310907	0.11232119170691787	0.7298838126986935	0.6708920408690023	0.10452083770966142	0.7467408719792032	0.6463035150676646
371	6.183333333333334	0.36720363155647456	0.6860073144739012	0.47934784168876693	0.35809178627132787	0.8754164963721204	0.9416446908505302	0.37755172749550175	1.068355579852572	1.3748554413261744	0.3265166343102286	0.8987569439926735	1.4335124641276729	0.3942980293718713	0.8931490299674405	1.433259963732962	0.3670673596617271	1.179918395407319	1.4232043875949654	0.17677386279848628	0.7588201816018085	0.4662955324364706	0.18355352325182667	0.9197924660794995	0.9399258439163927	0.17816599877576023	1.0702473212754176	1.3554303110256902	0.1754022736536296	0.9013125302243029	1.4193085796839606	0.12492772506388138	0.9349877801582198	1.414002507268224	0.2050834289259178	1.1384125436673904	1.4154959925326345	0.29894756497228164	0.545668026901817	-0.03832958309129206	0.3065946748730699	0.44823130374309234	-0.2546756885218165	0.2975543460297305	0.44151335609025966	-0.12017165390786395	0.46289647850443366	0.5541889188060127	0.07681048324020191	0.4567502693295723	0.5988256093801465	0.34920772644893405	0.42891902639838075	0.6323752882683564	0.5949584826680456	0.3802437068169015	0.6565265655713185	0.6968740648253029	0.40515473957086073	0.7019316201999202	0.7322213027760176	0.4194186501749616	0.7095689712285066	0.7090814593351029	0.13792985712206418	0.6431818549016165	0.008604548218776108	0.09978206916283329	0.6914882105875736	0.2719784087445942	0.10437186671752234	0.6983808378593214	0.5353681981010697	0.1428742277317689	0.6973002450986124	0.6359934899757815	0.11231356730695376	0.7308886927113861	0.6741118786947072	0.10343417801243815	0.7451622520401939	0.6484703338517428
